<?xml version="1.0" encoding="UTF-8"?>
<svg xmlns="http://www.w3.org/2000/svg" width="99.89627206933781" height="100.37680334753924" viewBox="-5.019615315404735E-6 -0.3768116120910392 99.89627206933781 100.37680334753924" preserveAspectRatio="none">
  <g>
    <defs>
      <path id="s-Path_21-d1224" d="M72.83558313437513 17.76619076891302 C75.75432066008747 20.241988958635947 80.87641794682125 33.0976397913008 82.68813031706236 36.90749430341278 C92.27618384317111 57.06767580814977 111.58598573965355 84.7891735744424 90.22525767446973 97.50327393491776 C80.78510927986804 103.12197644147976 61.6033415017051 97.44098578828608 65.30248047575157 71.18840020077484 C67.27869993494735 57.166092562340694 69.68404548046675 29.744356686621543 72.83558313437513 17.766192253978254 Z "/>
    </defs>
    <g style="mix-blend-mode:normal">
      <use xmlns:xlink="http://www.w3.org/1999/xlink" xlink:href="#s-Path_21-d1224" fill="#2A6D69" fill-opacity="1.0" fill-rule="evenodd"/>
    </g>
  </g>
  <g>
    <defs>
      <path id="s-Path_1-d1224" d="M7.110052620324211 58.91783852250135 C7.64664436080912 54.96462827656542 15.44967604242791 43.77169885309474 17.615281481771262 40.18132960092959 C29.074165069275466 21.181441015698958 41.76802213558372 -10.643280287941664 62.69835010318559 2.871625334461065 C71.94815872297431 8.844475282161394 76.95909219013006 29.529832466508026 53.94498507610544 39.21480406672768 C41.652249497684096 44.38747440216007 18.34248335674036 55.8606414421487 7.110053817567007 58.91783777996873 Z "/>
    </defs>
    <g style="mix-blend-mode:normal">
      <use xmlns:xlink="http://www.w3.org/1999/xlink" xlink:href="#s-Path_1-d1224" fill="#2A6D69" fill-opacity="1.0" fill-rule="evenodd"/>
    </g>
  </g>
  <g>
    <defs>
      <path id="s-Path_22-d1224" d="M72.98226843984128 99.39439844362494 C69.52693917364408 100.87181049983795 56.601810205291514 99.20908909064377 52.62449239570705 98.98960383069692 C31.57755528209418 97.82931091119056 -0.4261036806964853 101.93253444853849 0.004296416885409826 75.70352846566047 C0.1946361916984074 64.11197601139818 14.365470502705477 49.107609480245294 33.6804386426837 65.67522346753677 C43.99695476190928 74.52486077053854 64.90137535733359 90.4734296062691 72.98226724259848 99.39439770109232 Z "/>
    </defs>
    <g style="mix-blend-mode:normal">
      <use xmlns:xlink="http://www.w3.org/1999/xlink" xlink:href="#s-Path_22-d1224" fill="#2A6D69" fill-opacity="1.0" fill-rule="evenodd"/>
    </g>
  </g>
</svg>
